<svg width="36" height="36" viewBox="0 0 36 36" fill="none" xmlns="http://www.w3.org/2000/svg">
<g clip-path="url(#clip0_258_615)">
<path fill-rule="evenodd" clip-rule="evenodd" d="M0 28.5129C8.30828 25.8871 10.1135 27.6921 7.48755 36C12.3396 27.6921 23.6605 27.6921 28.5125 36C25.8883 27.6921 27.6937 25.8871 36 28.5129C27.6937 23.661 27.6937 12.3409 36 7.48906C27.6937 10.113 25.8883 8.30785 28.5125 0C23.6605 8.30785 12.3396 8.30785 7.48755 0C10.1135 8.30785 8.30828 10.113 0 7.48906C8.30828 12.3409 8.30828 23.661 0 28.5129ZM18 24.66C21.6783 24.66 24.66 21.6783 24.66 18C24.66 14.3218 21.6783 11.34 18 11.34C14.3218 11.34 11.34 14.3218 11.34 18C11.34 21.6783 14.3218 24.66 18 24.66Z" fill="#7875FF"/>
</g>
<defs>
<clipPath id="clip0_258_615">
<rect width="36" height="36" fill="white"/>
</clipPath>
</defs>
</svg>
