<svg width="70" height="70" viewBox="0 0 70 70" fill="none" xmlns="http://www.w3.org/2000/svg">
<circle cx="35" cy="35" r="34" fill="white" stroke="#232323" stroke-width="2"/>
<g clip-path="url(#clip0_622_28)">
<path fill-rule="evenodd" clip-rule="evenodd" d="M39.4818 17.8851L36.044 32.4797L43.9329 19.7288C44.1773 19.3339 44.7259 19.2701 45.0543 19.5985L50.4015 24.9457C50.7298 25.274 50.6661 25.8228 50.2712 26.0671L37.5204 33.9561L52.1149 30.5182C52.5669 30.4117 53 30.7546 53 31.219V38.7811C53 39.2455 52.5669 39.5884 52.1149 39.4818L37.5204 36.044L50.2712 43.933C50.6661 44.1773 50.7298 44.7259 50.4015 45.0544L45.0543 50.4015C44.7259 50.7298 44.1773 50.6661 43.9329 50.2712L36.044 37.5204L39.4818 52.1149C39.5884 52.5669 39.2453 53 38.7811 53H31.219C30.7546 53 30.4117 52.5669 30.5182 52.1149L33.9561 37.5204L26.0671 50.2712C25.8228 50.6661 25.274 50.7298 24.9457 50.4015L19.5985 45.0543C19.2701 44.7259 19.3339 44.1773 19.7288 43.9329L32.4796 36.044L17.8851 39.4818C17.4331 39.5884 17 39.2455 17 38.7811V31.219C17 30.7546 17.4331 30.4117 17.8851 30.5182L32.4796 33.9561L19.7288 26.0671C19.3339 25.8228 19.2701 25.274 19.5985 24.9457L24.9457 19.5985C25.274 19.2702 25.8228 19.3339 26.0671 19.7288L33.9561 32.4797L30.5182 17.8851C30.4117 17.4331 30.7546 17 31.219 17L38.7811 17C39.2455 17 39.5884 17.4331 39.4818 17.8851ZM35 37.0572C36.1362 37.0572 37.0572 36.1362 37.0572 35C37.0572 33.8639 36.1362 32.9429 35 32.9429C33.8639 32.9429 32.9429 33.8639 32.9429 35C32.9429 36.1362 33.8639 37.0572 35 37.0572Z" fill="#232323"/>
</g>
<defs>
<clipPath id="clip0_622_28">
<rect width="36" height="36" fill="white" transform="translate(17 17)"/>
</clipPath>
</defs>
</svg>
